<svg width="14" height="14" viewBox="0 0 14 14" fill="none" xmlns="http://www.w3.org/2000/svg">
<rect width="1.8" height="11" rx="0.4" transform="matrix(-1 0 0 1 4.83594 1.5)" fill="#0A0F38" fill-opacity="0.68"/>
<path fill-rule="evenodd" clip-rule="evenodd" d="M10.3142 1.83114C10.2009 1.72006 10.0206 1.72345 9.91144 1.83873L5.16398 6.79887C5.05767 6.91113 5.05767 7.08887 5.16398 7.20113L9.91144 12.1613C10.0206 12.2765 10.2009 12.2799 10.3142 12.1689L10.7243 11.7666C10.8376 11.6555 10.8409 11.472 10.7318 11.3567L6.74614 7.20113C6.63984 7.08887 6.63984 6.91113 6.74615 6.79887L10.7318 2.64325C10.8409 2.52798 10.8376 2.34449 10.7243 2.23341L10.3142 1.83114Z" fill="#0A0F38" fill-opacity="0.68" stroke="#0A0F38" stroke-opacity="0.68" stroke-width="0.5" stroke-linecap="square"/>
</svg>
