<svg width="16" height="15" viewBox="0 0 16 15" fill="none" xmlns="http://www.w3.org/2000/svg">
<g id="Group 99">
<path id="Vector" d="M12.5581 14.2524H3.44186C2.7945 14.2515 2.17391 13.994 1.71616 13.5362C1.2584 13.0785 1.00086 12.4579 1 11.8105V3.99655C1.00086 3.34919 1.2584 2.72859 1.71616 2.27084C2.17391 1.81309 2.7945 1.55555 3.44186 1.55469H12.5581C13.2055 1.55555 13.8261 1.81309 14.2838 2.27084C14.7416 2.72859 14.9991 3.34919 15 3.99655V11.8105C14.9991 12.4579 14.7416 13.0785 14.2838 13.5362C13.8261 13.994 13.2055 14.2515 12.5581 14.2524ZM3.44186 2.53143C3.05345 2.53195 2.68109 2.68647 2.40644 2.96113C2.13179 3.23578 1.97726 3.60813 1.97674 3.99655V11.8105C1.97726 12.1989 2.13179 12.5713 2.40644 12.8459C2.68109 13.1206 3.05345 13.2751 3.44186 13.2756H12.5581C12.9466 13.2751 13.3189 13.1206 13.5936 12.8459C13.8682 12.5713 14.0227 12.1989 14.0233 11.8105V3.99655C14.0227 3.60813 13.8682 3.23578 13.5936 2.96113C13.3189 2.68647 12.9466 2.53195 12.5581 2.53143H3.44186Z" fill="#989CAB" stroke="#989CAB" stroke-width="0.257418"/>
<path id="Vector_2" d="M14.5116 6.50802H1.48837C1.35885 6.50802 1.23463 6.45656 1.14304 6.36497C1.05145 6.27339 1 6.14917 1 6.01964V3.99655C1.00086 3.34919 1.2584 2.72859 1.71616 2.27084C2.17391 1.81309 2.7945 1.55555 3.44186 1.55469H12.5581C13.2055 1.55555 13.8261 1.81309 14.2838 2.27084C14.7416 2.72859 14.9991 3.34919 15 3.99655V6.01964C15 6.14917 14.9485 6.27339 14.857 6.36497C14.7654 6.45656 14.6412 6.50802 14.5116 6.50802ZM1.97674 5.53127H14.0233V3.99655C14.0227 3.60813 13.8682 3.23578 13.5936 2.96113C13.3189 2.68647 12.9466 2.53195 12.5581 2.53143H3.44186C3.05345 2.53195 2.68109 2.68647 2.40644 2.96113C2.13179 3.23578 1.97726 3.60813 1.97674 3.99655V5.53127Z" fill="#989CAB" stroke="#989CAB" stroke-width="0.257418"/>
<path id="Vector_3" d="M10.8756 3.8314C10.7461 3.8314 10.6218 3.77994 10.5302 3.68835C10.4387 3.59677 10.3872 3.47255 10.3872 3.34302V0.738372C10.3872 0.608848 10.4387 0.484628 10.5302 0.393041C10.6218 0.301453 10.7461 0.25 10.8756 0.25C11.0051 0.25 11.1293 0.301453 11.2209 0.393041C11.3125 0.484628 11.364 0.608848 11.364 0.738372V3.34302C11.364 3.47255 11.3125 3.59677 11.2209 3.68835C11.1293 3.77994 11.0051 3.8314 10.8756 3.8314Z" fill="#989CAB" stroke="#989CAB" stroke-width="0.257418"/>
<path id="Vector_4" d="M5.12509 3.8314C4.99557 3.8314 4.87135 3.77994 4.77976 3.68835C4.68817 3.59677 4.63672 3.47255 4.63672 3.34302V0.738372C4.63672 0.608848 4.68817 0.484628 4.77976 0.393041C4.87135 0.301453 4.99557 0.25 5.12509 0.25C5.25462 0.25 5.37883 0.301453 5.47042 0.393041C5.56201 0.484628 5.61346 0.608848 5.61346 0.738372V3.34302C5.61346 3.47255 5.56201 3.59677 5.47042 3.68835C5.37883 3.77994 5.25462 3.8314 5.12509 3.8314Z" fill="#989CAB" stroke="#989CAB" stroke-width="0.257418"/>
</g>
</svg>
