<svg width="44" height="30" viewBox="0 0 44 30" fill="none" xmlns="http://www.w3.org/2000/svg">
<g id="Frame 1000005848">
<path id="Vector" d="M4 28.75H40C41.6569 28.75 43 27.4069 43 25.75V4.75C43 3.09315 41.6569 1.75 40 1.75H4C2.34315 1.75 1 3.09315 1 4.75V25.75C1 27.4069 2.34315 28.75 4 28.75ZM4 28.75L32.5 12.25L43 19.75M15.5 10C15.5 11.2426 14.4926 12.25 13.25 12.25C12.0074 12.25 11 11.2426 11 10C11 8.75736 12.0074 7.75 13.25 7.75C14.4926 7.75 15.5 8.75736 15.5 10Z" stroke="#0A0F38" stroke-opacity="0.24" stroke-width="2" stroke-linecap="round" stroke-linejoin="round"/>
</g>
</svg>
