<svg width="16" height="17" viewBox="0 0 16 17" fill="none" xmlns="http://www.w3.org/2000/svg">
<g id="link">
<path id="Vector" d="M5.33301 8.7487H10.6663M5.99967 6.08203H3.99967C3.29243 6.08203 2.61415 6.36298 2.11406 6.86308C1.61396 7.36318 1.33301 8.04145 1.33301 8.7487C1.33301 9.45594 1.61396 10.1342 2.11406 10.6343C2.61415 11.1344 3.29243 11.4154 3.99967 11.4154H5.99967M9.99967 6.08203H11.9997C12.7069 6.08203 13.3852 6.36298 13.8853 6.86308C14.3854 7.36318 14.6663 8.04145 14.6663 8.7487C14.6663 9.45594 14.3854 10.1342 13.8853 10.6343C13.3852 11.1344 12.7069 11.4154 11.9997 11.4154H9.99967" stroke="#989CAB" stroke-width="1.5" stroke-linecap="round" stroke-linejoin="round"/>
</g>
</svg>
