<svg width="14" height="15" viewBox="0 0 14 15" fill="none" xmlns="http://www.w3.org/2000/svg">
<g id="Frame">
<g id="Layer 2">
<path id="Vector" d="M12.1384 14.0562H1.86198C1.63716 14.0572 1.41523 14.0056 1.21397 13.9054C1.01272 13.8052 0.837748 13.6592 0.703087 13.4792C0.564235 13.296 0.470232 13.0828 0.428615 12.8567C0.386997 12.6307 0.398922 12.398 0.463434 12.1774C0.870015 10.7576 1.72781 9.50882 2.90711 8.61983C4.08641 7.73085 5.52309 7.25 6.99993 7.25C8.47677 7.25 9.91345 7.73085 11.0928 8.61983C12.2721 9.50882 13.1298 10.7576 13.5364 12.1774C13.6012 12.3979 13.6132 12.6306 13.5717 12.8567C13.5302 13.0828 13.4362 13.296 13.2973 13.4792C13.1626 13.6592 12.9876 13.8052 12.7864 13.9054C12.5851 14.0056 12.3632 14.0572 12.1384 14.0562ZM7.00017 8.22286C5.73557 8.22692 4.50631 8.6405 3.49644 9.40167C2.48657 10.1628 1.75043 11.2307 1.39823 12.4452C1.37575 12.5211 1.37138 12.6011 1.38548 12.679C1.39958 12.7568 1.43175 12.8303 1.47941 12.8934C1.52347 12.9533 1.58115 13.0018 1.64768 13.0349C1.7142 13.068 1.78766 13.0849 1.86198 13.084H12.1384C12.2127 13.0849 12.2861 13.068 12.3527 13.0349C12.4192 13.0018 12.4769 12.9533 12.5209 12.8934C12.5686 12.8303 12.6008 12.7568 12.6148 12.6789C12.6288 12.6011 12.6243 12.521 12.6016 12.4452C12.2496 11.2307 11.5136 10.1628 10.5038 9.40162C9.49395 8.64044 8.26472 8.22687 7.00017 8.22286Z" fill="#989CAB" stroke="#989CAB" stroke-width="0.562499"/>
<path id="Vector_2" d="M7.00022 8.22309C6.23107 8.22309 5.47919 7.99501 4.83967 7.5677C4.20014 7.14038 3.70169 6.53302 3.40735 5.82242C3.11301 5.11181 3.036 4.32989 3.18605 3.57552C3.33611 2.82115 3.70649 2.12821 4.25036 1.58434C4.79423 1.04047 5.48716 0.670092 6.24153 0.520038C6.9959 0.369985 7.77783 0.446997 8.48843 0.741338C9.19903 1.03568 9.8064 1.53413 10.2337 2.17365C10.661 2.81318 10.8891 3.56505 10.8891 4.3342C10.8879 5.36525 10.4779 6.35373 9.7488 7.08278C9.01974 7.81184 8.03126 8.22193 7.00022 8.22309ZM7.00022 1.41754C6.42336 1.41754 5.85945 1.5886 5.37981 1.90908C4.90016 2.22957 4.52633 2.68509 4.30557 3.21804C4.08481 3.75099 4.02705 4.33744 4.1396 4.90322C4.25214 5.46899 4.52992 5.9887 4.93782 6.3966C5.34573 6.8045 5.86543 7.08229 6.43121 7.19483C6.99698 7.30737 7.58343 7.24961 8.11638 7.02885C8.64933 6.8081 9.10485 6.43426 9.42534 5.95462C9.74583 5.47497 9.91689 4.91107 9.91689 4.3342C9.91611 3.56089 9.60858 2.81948 9.06176 2.27266C8.51495 1.72585 7.77353 1.41831 7.00022 1.41754Z" fill="#989CAB" stroke="#989CAB" stroke-width="0.562499"/>
</g>
</g>
</svg>
