<svg width="18" height="18" viewBox="0 0 18 18" fill="none" xmlns="http://www.w3.org/2000/svg">
<g id="i">
<path id="Vector" d="M16.3683 15.8619L12.6381 12.1317M12.6381 12.1317C13.2368 11.533 13.7117 10.8222 14.0357 10.04C14.3598 9.25772 14.5265 8.4193 14.5265 7.57259C14.5265 6.72588 14.3598 5.88746 14.0357 5.10521C13.7117 4.32295 13.2368 3.61217 12.6381 3.01346C12.0394 2.41474 11.3286 1.93982 10.5463 1.61579C9.76407 1.29177 8.92565 1.125 8.07894 1.125C7.23223 1.125 6.39381 1.29177 5.61155 1.61579C4.8293 1.93982 4.11852 2.41474 3.5198 3.01346C2.31065 4.22261 1.63135 5.86258 1.63135 7.57259C1.63135 9.2826 2.31065 10.9226 3.5198 12.1317C4.72896 13.3409 6.36893 14.0202 8.07894 14.0202C9.78895 14.0202 11.4289 13.3409 12.6381 12.1317Z" stroke="#223475" stroke-width="2" stroke-linecap="round" stroke-linejoin="round"/>
</g>
</svg>
